<?xml version="1.0" encoding="UTF-8" standalone="no"?><!DOCTYPE svg PUBLIC "-//W3C//DTD SVG 1.1//EN" "http://www.w3.org/Graphics/SVG/1.1/DTD/svg11.dtd"><svg width="100%" height="100%" viewBox="0 0 2356 1210" version="1.1" xmlns="http://www.w3.org/2000/svg" xmlns:xlink="http://www.w3.org/1999/xlink" xml:space="preserve" xmlns:serif="http://www.serif.com/" style="fill-rule:evenodd;clip-rule:evenodd;stroke-linecap:round;stroke-linejoin:round;stroke-miterlimit:1.5;"><path d="M1372.163,983.375l-630.504,-630.504m382.55,382.55c-58.35,232.483 -268.883,404.85 -519.354,404.85c-295.504,0 -535.417,-239.913 -535.417,-535.417c0,-295.504 239.913,-535.417 535.417,-535.417c147.754,0 281.608,59.979 378.521,156.896m630.504,630.504l-630.504,-630.504m0,0l630.504,630.504m-382.55,-382.55c58.35,-232.483 268.883,-404.85 519.354,-404.85c295.504,0 535.417,239.913 535.417,535.417c0,295.504 -239.912,535.417 -535.417,535.417c-147.754,0 -281.608,-59.979 -378.521,-156.896" style="fill:#ebebeb;fill-opacity:0;stroke:#fff;stroke-width:138.88px;"/></svg>